<?xml version="1.0" standalone="no"?>
<!DOCTYPE svg PUBLIC "-//W3C//DTD SVG 20010904//EN"
 "http://www.w3.org/TR/2001/REC-SVG-20010904/DTD/svg10.dtd">
<svg version="1.0" xmlns="http://www.w3.org/2000/svg"
 width="246.000000pt" height="115.000000pt" viewBox="0 0 246.000000 115.000000"
 preserveAspectRatio="xMidYMid meet">
<metadata>
Created by potrace 1.15, written by Peter Selinger 2001-2017
</metadata>
<g transform="translate(0.000000,115.000000) scale(0.100000,-0.100000)"
fill="#000000" stroke="none">
<path d="M419 1063 c-1 -5 0 -17 1 -27 1 -13 -3 -17 -13 -13 -10 4 -17 -2 -21
-16 -5 -18 -8 -19 -15 -7 -9 12 -11 12 -16 -2 -4 -9 -20 -21 -36 -27 -16 -5
-29 -14 -30 -18 0 -4 -2 -42 -3 -83 -4 -88 -40 -195 -62 -186 -8 3 -14 1 -14
-3 0 -5 5 -11 11 -13 6 -2 -5 -41 -30 -98 -42 -98 -53 -142 -27 -107 13 17 14
17 18 1 2 -12 29 22 78 97 41 63 78 122 83 133 5 13 11 15 20 8 27 -21 54 -22
77 -2 22 19 22 21 6 45 -9 14 -20 25 -24 25 -12 0 -12 63 0 77 8 10 6 19 -12
38 -26 27 -21 55 10 55 23 0 22 -3 25 73 2 43 -1 57 -11 57 -8 0 -15 -3 -15
-7z"/>
<path d="M1974 961 c3 -5 -10 -12 -30 -16 -36 -6 -63 -15 -309 -102 -77 -28
-165 -53 -195 -57 -65 -8 -147 6 -208 35 -43 21 -60 21 -47 -1 13 -21 119 -61
145 -55 16 4 20 3 12 -3 -10 -7 -4 -11 20 -16 19 -4 34 -2 36 4 2 5 16 8 30 5
23 -5 24 -4 7 4 -16 8 -12 10 20 9 22 0 32 -2 23 -5 -35 -9 -18 -24 20 -18 90
16 353 113 360 134 2 6 -18 2 -45 -10 -71 -31 -274 -99 -292 -99 -9 1 16 11
54 24 65 22 154 55 200 75 91 40 227 72 302 70 43 -1 45 -2 18 -9 -26 -7 -23
-8 22 -9 28 0 64 -6 80 -13 15 -6 38 -13 51 -14 13 -2 44 -15 69 -29 l45 -27
-29 -17 c-36 -22 -125 -120 -169 -185 -19 -28 -34 -45 -34 -37 0 8 -6 11 -16
7 -44 -17 -64 -18 -64 -3 0 8 5 17 12 19 9 3 8 8 -2 20 -14 14 -17 13 -36 -7
-12 -13 -24 -29 -27 -37 -3 -10 -15 -13 -35 -10 -23 3 -34 -1 -43 -16 -11 -17
-16 -19 -28 -9 -12 10 -13 8 -7 -11 8 -23 -8 -32 -18 -9 -3 6 -3 2 0 -10 8
-32 -8 -29 -34 7 -13 17 -32 30 -42 30 -11 0 -29 5 -40 12 -16 10 -23 9 -42
-10 -13 -12 -44 -41 -70 -63 -27 -23 -48 -49 -48 -58 0 -19 -72 -92 -110 -111
-24 -13 -24 -13 -9 11 56 89 89 149 89 166 0 27 -33 55 -62 52 -13 -2 -40 3
-61 10 -34 12 -40 11 -53 -6 -9 -11 -13 -34 -11 -58 3 -37 -1 -44 -69 -115
-40 -41 -75 -73 -78 -70 -3 3 18 50 46 104 37 72 47 100 38 106 -7 4 -9 13 -6
19 6 8 -5 10 -36 5 -24 -4 -44 -11 -46 -15 -14 -35 -173 -213 -204 -230 l-23
-12 21 24 c43 48 64 93 64 141 0 39 -4 50 -31 72 -17 14 -38 27 -47 27 -9 1
-29 3 -44 5 -16 1 -28 -1 -28 -7 0 -5 -9 -9 -20 -9 -13 0 -27 -14 -41 -42 -12
-24 -28 -47 -35 -51 -8 -4 -14 -16 -14 -26 0 -17 -39 -61 -53 -61 -4 0 -7 17
-7 38 0 22 -7 61 -15 88 -18 61 -18 64 0 64 18 0 19 12 3 28 -15 15 -51 15
-66 0 -7 -7 -12 -31 -12 -54 0 -37 -5 -46 -62 -101 -35 -33 -68 -68 -74 -79
-7 -10 -14 -16 -18 -13 -3 3 8 25 25 49 17 24 38 59 46 78 13 32 13 37 -5 61
-24 33 -52 37 -104 16 -34 -13 -40 -14 -35 -1 9 23 -64 8 -86 -18 -42 -50 -47
-57 -47 -71 0 -8 -7 -15 -16 -15 -10 0 -14 -6 -10 -15 3 -8 -8 -39 -24 -69
-17 -30 -30 -56 -30 -59 0 -3 25 -4 57 -3 53 1 57 3 72 33 19 39 51 45 51 10
0 -45 61 -72 114 -51 22 8 20 28 -1 20 -17 -6 -17 -5 0 8 15 12 21 10 49 -16
29 -27 38 -30 79 -26 27 3 58 14 74 27 16 12 30 19 32 17 5 -4 -67 -149 -121
-244 -20 -35 -36 -67 -36 -71 0 -5 26 -9 58 -10 l57 -1 20 47 c11 26 39 86 61
133 l41 86 89 -2 c78 -2 93 0 130 22 23 14 47 31 54 39 9 11 15 9 35 -11 42
-42 65 -33 170 67 52 51 98 89 101 87 3 -3 -4 -21 -15 -39 -26 -43 -27 -100
-3 -122 29 -26 100 -22 144 8 l37 25 30 -30 c21 -22 39 -30 64 -30 40 0 123
41 155 77 13 14 24 24 25 22 2 -2 8 -16 15 -31 6 -16 28 -35 53 -47 35 -17 43
-18 55 -6 23 23 49 26 80 10 42 -22 66 -19 110 14 56 41 159 149 151 158 -4 3
-22 -7 -40 -23 l-32 -29 29 32 c16 18 27 36 23 39 -8 8 -41 -16 -67 -49 -23
-28 -69 -60 -55 -37 5 8 1 11 -11 8 -14 -2 -18 -11 -16 -29 2 -19 -4 -31 -22
-43 -22 -14 -26 -14 -26 -2 0 8 7 21 15 29 7 8 17 26 20 40 4 14 20 38 36 54
15 15 29 34 29 41 0 6 7 12 15 12 22 0 184 158 206 202 10 20 19 48 19 61 0
35 -85 107 -160 137 -19 8 -39 20 -44 28 -5 9 -11 10 -15 5 -4 -7 -31 -7 -76
-1 -38 5 -87 6 -107 3 -23 -3 -38 -1 -38 5 0 5 -7 10 -16 10 -8 0 -13 -4 -10
-9z"/>
</g>
</svg>
